#!OML:ASF H:\GeneralSubjects\Female5\Project 1\Capture day 1\Session 1\Female5.ASF
:FULLY-SPECIFIED
:DEGREES
222
root -32.3775 15.6539 3.46259 -173.98 -4.85949 -174.552
lowerback 4.46445 1.40388 0.86155
upperback -10.7073 1.38037 5.25919
thorax -14.4118 0.440772 5.28157
lowerneck -16.1619 2.63415 -2.02277
upperneck 34.3408 1.362 2.14115
head 14.4746 -0.343571 1.2142
rclavicle -2.20651e-014 -9.54166e-015
rhumerus -52.0062 28.1772 -90.375
rradius 33.7893
rwrist -25.2988
rhand -19.713 -26.1087
rfingers 7.12502
rthumb 6.61687 -55.9853
lclavicle -2.20651e-014 -9.54166e-015
lhumerus -48.633 2.06807 88.0074
lradius 31.676
lwrist -8.92628
lhand -20.3221 32.593
lfingers 7.12502
lthumb 6.0288 62.4872
rfemur 0 0 0
rtibia 0
rfoot 0 0
rtoes 0
lfemur -27.4312 -12.5407 -4.56362
ltibia 25.5355
lfoot -22.6216 19.4343
ltoes -60.1505
223
root -32.3759 15.6517 3.45887 -174.004 -4.89975 -174.37
lowerback 4.47042 1.43509 0.972456
upperback -10.6979 1.43635 5.35232
thorax -14.4103 0.457702 5.31577
lowerneck -16.2053 2.57416 -2.15048
upperneck 34.2766 1.33985 2.12812
head 14.4542 -0.363601 1.22903
rclavicle -2.38542e-015 -6.12257e-014
rhumerus -52.0537 28.2263 -90.272
rradius 33.8396
rwrist -25.3536
rhand -19.8331 -26.2056
rfingers 7.12502
rthumb 6.5009 -56.0858
lclavicle -2.38542e-015 -6.12257e-014
lhumerus -48.592 2.95566 87.2346
lradius 31.3793
lwrist -11.2329
lhand -17.2549 30.1236
lfingers 7.12502
lthumb 8.98936 59.9121
rfemur 0 0 0
rtibia 0
rfoot 0 0
rtoes 0
lfemur -27.4597 -12.4451 -4.3504
ltibia 25.5536
lfoot -22.0949 19.7138
ltoes -60.7305
224
root -32.3737 15.6505 3.45604 -174.02 -4.93667 -174.26
lowerback 4.47676 1.4499 1.06307
upperback -10.693 1.46701 5.39059
thorax -14.4098 0.463005 5.303
lowerneck -16.2283 2.53213 -2.27086
upperneck 34.2269 1.31177 2.18065
head 14.4352 -0.378378 1.26785
rclavicle -6.36111e-015 7.15625e-014
rhumerus -52.1306 28.1388 -90.1713
rradius 34.0524
rwrist -25.2718
rhand -19.9679 -26.2917
rfingers 7.12502
rthumb 6.37076 -56.1759
lclavicle -6.36111e-015 7.15625e-014
lhumerus -48.6038 3.5407 86.6819
lradius 31.1082
lwrist -12.4385
lhand -16.2029 28.0686
lfingers 7.12502
lthumb 10.0044 57.8108
rfemur 0 0 0
rtibia 0
rfoot 0 0
rtoes 0
lfemur -27.4805 -12.3698 -4.22265
ltibia 25.5626
lfoot -21.6395 19.9337
ltoes -61.9622
225
root -32.3715 15.6491 3.45466 -173.996 -4.97831 -174.261
lowerback 4.46365 1.44632 1.05215
upperback -10.6994 1.45961 5.39041
thorax -14.409 0.460393 5.31047
lowerneck -16.2386 2.52256 -2.3364
upperneck 34.2186 1.30609 2.22652
head 14.4325 -0.381622 1.29748
rclavicle -8.34896e-015 1.11319e-014
rhumerus -52.251 28.1406 -90.1559
rradius 34.3292
rwrist -25.3168
rhand -19.8991 -26.1363
rfingers 7.12502
rthumb 6.43724 -56.0185
lclavicle -8.34896e-015 1.11319e-014
lhumerus -48.6641 3.92195 86.3123
lradius 30.9696
lwrist -12.8152
lhand -15.8125 27.2145
lfingers 7.12502
lthumb 10.3811 56.9383
rfemur 0 0 0
rtibia 0
rfoot 0 0
rtoes 0
lfemur -27.5425 -12.2797 -4.24654
ltibia 25.5549
lfoot -20.9931 20.3591
ltoes -64.3511
226
root -32.37 15.6488 3.45203 -173.952 -5.02162 -174.306
lowerback 4.43286 1.44448 0.963781
upperback -10.7096 1.44545 5.39336
thorax -14.4041 0.463569 5.36652
lowerneck -16.2423 2.51314 -2.42886
upperneck 34.2207 1.28913 2.32036
head 14.4322 -0.387606 1.34943
rclavicle -2.98177e-015 -3.26007e-014
rhumerus -52.3058 28.2393 -90.164
rradius 34.3687
rwrist -25.4588
rhand -19.8032 -25.8831
rfingers 7.12502
rthumb 6.52976 -55.7624
lclavicle -2.98177e-015 -3.26007e-014
lhumerus -48.743 4.02689 86.2449
lradius 30.9452
lwrist -12.5786
lhand -16.3494 27.7672
lfingers 7.12502
lthumb 9.86303 57.5162
rfemur 0 0 0
rtibia 0
rfoot 0 0
rtoes 0
lfemur -27.6002 -12.296 -4.29831
ltibia 25.5394
lfoot -20.8366 20.543
ltoes -64.5596
227
root -32.37 15.651 3.44661 -173.903 -5.0245 -174.331
lowerback 4.37809 1.45355 0.913746
upperback -10.7232 1.447 5.37999
thorax -14.387 0.467975 5.37938
lowerneck -16.2693 2.49671 -2.45879
upperneck 34.2417 1.2416 2.40687
head 14.4481 -0.40044 1.38264
rclavicle -5.96354e-015 8.18993e-014
rhumerus -52.232 28.1952 -90.1668
rradius 34.2639
rwrist -25.4126
rhand -19.7689 -26.0831
rfingers 7.12502
rthumb 6.56289 -55.9614
lclavicle -5.96354e-015 8.18993e-014
lhumerus -48.8539 3.84511 86.4154
lradius 30.9268
lwrist -11.4883
lhand -17.8625 29.5224
lfingers 7.12502
lthumb 8.40306 59.3352
rfemur 0 0 0
rtibia 0
rfoot 0 0
rtoes 0
lfemur -27.6178 -12.5325 -4.26332
ltibia 25.5888
lfoot -21.8945 19.8379
ltoes -63.621
228
root -32.3694 15.6533 3.44065 -173.836 -4.99314 -174.3
lowerback 4.30684 1.46587 0.918928
upperback -10.7435 1.45535 5.37952
thorax -14.3665 0.468272 5.37502
lowerneck -16.2991 2.50386 -2.43511
upperneck 34.2659 1.21165 2.49348
head 14.4662 -0.398716 1.40953
rclavicle -4.96962e-015 -2.8625e-014
rhumerus -52.132 28.0908 -90.144
rradius 34.2329
rwrist -25.2133
rhand -19.6868 -26.2996
rfingers 7.12502
rthumb 6.64215 -56.1755
lclavicle -4.96962e-015 -2.8625e-014
lhumerus -49.0335 3.33383 86.9698
lradius 30.939
lwrist -8.87744
lhand -16.5794 29.1047
lfingers 7.12502
lthumb 9.64112 58.8641
rfemur 0 0 0
rtibia 0
rfoot 0 0
rtoes 0
lfemur -27.6763 -12.7622 -4.16505
ltibia 25.6933
lfoot -22.9914 19.1343
ltoes -60.6019
229
root -32.368 15.6541 3.43579 -173.76 -5.00679 -174.261
lowerback 4.23845 1.46784 0.944631
upperback -10.7657 1.4518 5.38715
thorax -14.3488 0.460853 5.37045
lowerneck -16.2775 2.49535 -2.43288
upperneck 34.2322 1.18562 2.53767
head 14.4463 -0.401237 1.42266
rclavicle 1.59028e-014 7.71285e-014
rhumerus -52.1045 28.0505 -90.0825
rradius 34.2173
rwrist -25.0741
rhand -19.6277 -25.9269
rfingers 7.12502
rthumb 6.69922 -55.8009
lclavicle 1.59028e-014 7.71285e-014
lhumerus -49.1279 3.55588 86.6846
lradius 30.8594
lwrist -9.18695
lhand -14.4704 27.9437
lfingers 7.12502
lthumb 11.6755 57.5983
rfemur 0 0 0
rtibia 0
rfoot 0 0
rtoes 0
lfemur -27.7865 -12.8653 -4.08193
ltibia 25.7647
lfoot -23.4094 19.031
ltoes -62.504
230
root -32.3662 15.6541 3.43172 -173.713 -5.03901 -174.242
lowerback 4.22482 1.46847 0.968946
upperback -10.788 1.4508 5.37321
thorax -14.3653 0.455613 5.34249
lowerneck -16.2811 2.45119 -2.48001
upperneck 34.1982 1.11232 2.61497
head 14.4328 -0.425234 1.45052
rclavicle 5.76476e-015 -5.56597e-015
rhumerus -52.1599 28.0168 -90.0766
rradius 34.2661
rwrist -25.0075
rhand -19.6228 -25.5466
rfingers 7.12502
rthumb 6.70398 -55.4205
lclavicle 5.76476e-015 -5.56597e-015
lhumerus -49.1857 3.73115 86.4094
lradius 30.783
lwrist -9.5112
lhand -13.8443 27.3948
lfingers 7.12502
lthumb 12.2792 57.0143
rfemur 0 0 0
rtibia 0
rfoot 0 0
rtoes 0
lfemur -27.8428 -12.7768 -4.05405
ltibia 25.7213
lfoot -22.8423 19.5574
ltoes -60.9017
231
root -32.3637 15.6541 3.4278 -173.678 -5.04219 -174.278
lowerback 4.26817 1.46994 0.916857
upperback -10.8092 1.44814 5.35631
thorax -14.42 0.460223 5.35573
lowerneck -16.3302 2.40468 -2.57403
upperneck 34.1695 1.04289 2.72947
head 14.431 -0.447106 1.50335
rclavicle -1.59028e-015 -3.33958e-014
rhumerus -52.1301 27.9295 -90.0215
rradius 34.257
rwrist -24.7794
rhand -19.3742 -25.1754
rfingers 7.12502
rthumb 6.94389 -55.0415
lclavicle -1.59028e-015 -3.33958e-014
lhumerus -49.2208 3.94004 86.1549
lradius 30.7091
lwrist -9.71862
lhand -13.7679 27.9198
lfingers 7.12502
lthumb 12.3529 57.5349
rfemur 0 0 0
rtibia 0
rfoot 0 0
rtoes 0
lfemur -27.8718 -12.6536 -4.09652
ltibia 25.67
lfoot -22.2816 20.0214
ltoes -62.0433
232
root -32.3616 15.6538 3.42421 -173.622 -5.03605 -174.36
lowerback 4.29394 1.4691 0.809529
upperback -10.8242 1.43652 5.35448
thorax -14.458 0.467719 5.41821
lowerneck -16.2988 2.3713 -2.70475
upperneck 34.0523 1.02201 2.82415
head 14.3686 -0.451011 1.5613
rclavicle -2.14687e-014 4.29375e-014
rhumerus -52.0061 27.8648 -89.8959
rradius 34.14
rwrist -24.5122
rhand -18.9649 -24.6261
rfingers 7.12502
rthumb 7.33902 -54.4788
lclavicle -2.14687e-014 4.29375e-014
lhumerus -49.2354 3.90716 86.2551
lradius 30.7243
lwrist -8.98434
lhand -14.5915 28.961
lfingers 7.12502
lthumb 11.5587 58.6223
rfemur 0 0 0
rtibia 0
rfoot 0 0
rtoes 0
lfemur -27.9316 -12.7086 -4.15546
ltibia 25.703
lfoot -22.5936 19.842
ltoes -63.9169
233
root -32.3611 15.6533 3.42043 -173.566 -5.05375 -174.379
lowerback 4.29414 1.46899 0.79687
upperback -10.8361 1.43348 5.36242
thorax -14.4734 0.467561 5.43609
lowerneck -16.2061 2.36325 -2.79668
upperneck 33.9121 1.03565 2.88715
head 14.2815 -0.439502 1.60401
rclavicle -2.46493e-014 7.71285e-014
rhumerus -52.0726 27.9953 -89.9621
rradius 34.2901
rwrist -24.6862
rhand -18.9004 -24.7257
rfingers 7.12502
rthumb 7.40125 -54.5763
lclavicle -2.46493e-014 7.71285e-014
lhumerus -49.1898 4.02368 86.1598
lradius 30.6309
lwrist -8.95846
lhand -14.3193 28.7837
lfingers 7.12502
lthumb 11.8212 58.43
rfemur 0 0 0
rtibia 0
rfoot 0 0
rtoes 0
lfemur -28.0097 -12.6719 -4.18195
ltibia 25.7416
lfoot -22.15 19.9821
ltoes -61.4107
234
root -32.361 15.6541 3.41568 -173.519 -5.10971 -174.343
lowerback 4.29204 1.46331 0.843319
upperback -10.8518 1.42801 5.39022
thorax -14.4904 0.459571 5.44395
lowerneck -16.1186 2.37522 -2.84129
upperneck 33.8113 1.0739 2.90313
head 14.2138 -0.420754 1.62324
rclavicle 6.75868e-015 -4.05521e-014
rhumerus -52.2959 28.1933 -90.0858
rradius 34.6284
rwrist -25.0496
rhand -18.8971 -25.1373
rfingers 7.12502
rthumb 7.4045 -54.9877
lclavicle 6.75868e-015 -4.05521e-014
lhumerus -49.2051 4.08442 86.1259
lradius 30.6512
lwrist -8.97464
lhand -16.0696 28.8897
lfingers 7.12502
lthumb 10.133 58.6257
rfemur 0 0 0
rtibia 0
rfoot 0 0
rtoes 0
lfemur -28.1039 -12.5938 -4.16652
ltibia 25.7943
lfoot -21.3309 20.4033
ltoes -61.3122
235
root -32.3586 15.656 3.41106 -173.493 -5.14499 -174.302
lowerback 4.32668 1.46021 0.877667
upperback -10.8701 1.42714 5.40872
thorax -14.5347 0.455668 5.44825
lowerneck -16.0676 2.36081 -2.83342
upperneck 33.7407 1.06749 2.87506
head 14.1713 -0.4223 1.60851
rclavicle 1.49089e-014 -8.0309e-014
rhumerus -52.4257 28.3101 -90.1729
rradius 34.7615
rwrist -25.2654
rhand -18.8064 -25.2868
rfingers 7.12502
rthumb 7.49199 -55.1341
lclavicle 1.49089e-014 -8.0309e-014
lhumerus -49.2 4.9973 85.1208
lradius 30.5378
lwrist -11.9342
lhand -18.3711 28.5525
lfingers 7.12502
lthumb 7.91216 58.3845
rfemur 0 0 0
rtibia 0
rfoot 0 0
rtoes 0
lfemur -28.1482 -12.5548 -4.11085
ltibia 25.7767
lfoot -20.8264 20.9398
ltoes -62.2068
236
root -32.3558 15.6584 3.40645 -173.489 -5.1288 -174.254
lowerback 4.39362 1.46875 0.952307
upperback -10.8843 1.4486 5.39124
thorax -14.5932 0.456883 5.38491
lowerneck -16.1085 2.31326 -2.92497
upperneck 33.756 0.974527 3.01583
head 14.1886 -0.455133 1.66711
rclavicle -9.34288e-015 -1.66979e-014
rhumerus -52.3566 28.273 -90.2221
rradius 34.6495
rwrist -25.2883
rhand -18.856 -25.5593
rfingers 7.12502
rthumb 7.44419 -55.4083
lclavicle -9.34288e-015 -1.66979e-014
lhumerus -49.2792 4.56073 85.5167
lradius 30.5426
lwrist -10.2502
lhand -15.501 27.4074
lfingers 7.12502
lthumb 10.6816 57.1159
rfemur 0 0 0
rtibia 0
rfoot 0 0
rtoes 0
lfemur -28.1193 -12.5225 -4.03478
ltibia 25.684
lfoot -20.2879 21.6279
ltoes -62.9564
